/* XPM */
static char * hide_inactive_xpm[] = {
"20 20 3 1",
" 	c None",
".	c #2D2D2D",
"+	c #AAAAAA",
"....................",
"....................",
"....................",
"....................",
"....................",
"....................",
"....................",
"....................",
"....................",
"......++++++++......",
"......++++++++......",
"....................",
"....................",
"....................",
"....................",
"....................",
"....................",
"....................",
"....................",
"...................."};
