/* XPM */
static char * icon_focused_xpm[] = {
"18 18 3 1",
" 	c None",
".	c #3D3D3D",
"+	c #D64937",
"..................",
"..................",
"..................",
"..................",
"..................",
"..................",
"..................",
"..................",
"..................",
"..................",
"..................",
"..................",
"..................",
"..................",
"..................",
"..................",
"++++++++++++++++++",
"++++++++++++++++++"};
